<svg width="283" height="64" viewBox="0 0 283 64" fill="none" xmlns="http://www.w3.org/2000/svg">
  <path d="M141 0C63.268 0 0 63.268 0 141C0 218.732 63.268 282 141 282C218.732 282 282 218.732 282 141C282 63.268 218.732 0 141 0ZM141 256.5C77.147 256.5 25.5 204.853 25.5 141C25.5 77.147 77.147 25.5 141 25.5C204.853 25.5 256.5 77.147 256.5 141C256.5 204.853 204.853 256.5 141 256.5Z" fill="black"/>
  <path d="M141 51C92.4 51 51 92.4 51 141C51 189.6 92.4 231 141 231C189.6 231 231 189.6 231 141C231 92.4 189.6 51 141 51ZM141 205.5C110.4 205.5 85.5 180.6 85.5 141C85.5 101.4 110.4 76.5 141 76.5C171.6 76.5 196.5 101.4 196.5 141C196.5 180.6 171.6 205.5 141 205.5Z" fill="black"/>
  <path d="M141 102C120.6 102 102 120.6 102 141C102 161.4 120.6 180 141 180C161.4 180 180 161.4 180 141C180 120.6 161.4 102 141 102ZM141 154.5C133.8 154.5 127.5 148.2 127.5 141C127.5 133.8 133.8 127.5 141 127.5C148.2 127.5 154.5 133.8 154.5 141C154.5 148.2 148.2 154.5 141 154.5Z" fill="black"/>
</svg> 